<svg xmlns="http://www.w3.org/2000/svg" style="display: none;">
    <symbol id="icon-parser" viewBox="0 0 24 24">
        <path d="M12 2L2 7L12 12L22 7L12 2Z" stroke="currentColor" stroke-width="2" stroke-linecap="round" stroke-linejoin="round" fill="none"/>
        <path d="M2 17L12 22L22 17" stroke="currentColor" stroke-width="2" stroke-linecap="round" stroke-linejoin="round" fill="none"/>
        <path d="M2 12L12 17L22 12" stroke="currentColor" stroke-width="2" stroke-linecap="round" stroke-linejoin="round" fill="none"/>
    </symbol>
    
    <symbol id="icon-download" viewBox="0 0 24 24">
        <path d="M21 15V19C21 19.5304 20.7893 20.0391 20.4142 20.4142C20.0391 20.7893 19.5304 21 19 21H5C4.46957 21 3.96086 20.7893 3.58579 20.4142C3.21071 20.0391 3 19.5304 3 19V15" stroke="currentColor" stroke-width="2" stroke-linecap="round" stroke-linejoin="round" fill="none"/>
        <path d="M7 10L12 15L17 10" stroke="currentColor" stroke-width="2" stroke-linecap="round" stroke-linejoin="round" fill="none"/>
        <path d="M12 15V3" stroke="currentColor" stroke-width="2" stroke-linecap="round" stroke-linejoin="round" fill="none"/>
    </symbol>
    
    <symbol id="icon-settings" viewBox="0 0 24 24">
        <circle cx="12" cy="12" r="3" stroke="currentColor" stroke-width="2" fill="none"/>
        <path d="M12 1V3M12 21V23M4.22 4.22L5.64 5.64M18.36 18.36L19.78 19.78M1 12H3M21 12H23M4.22 19.78L5.64 18.36M18.36 5.64L19.78 4.22" stroke="currentColor" stroke-width="2" stroke-linecap="round" fill="none"/>
    </symbol>
    
    <symbol id="icon-search" viewBox="0 0 24 24">
        <path d="M21 21L15 15M17 10C17 13.866 13.866 17 10 17C6.13401 17 3 13.866 3 10C3 6.13401 6.13401 3 10 3C13.866 3 17 6.13401 17 10Z" stroke="currentColor" stroke-width="2" stroke-linecap="round" stroke-linejoin="round" fill="none"/>
    </symbol>
    
    <symbol id="icon-video" viewBox="0 0 24 24">
        <path d="M23 7L16 12L23 17V7Z" stroke="currentColor" stroke-width="2" stroke-linecap="round" stroke-linejoin="round" fill="none"/>
        <rect x="1" y="5" width="15" height="14" rx="2" ry="2" stroke="currentColor" stroke-width="2" fill="none"/>
    </symbol>
    
    <symbol id="icon-image" viewBox="0 0 24 24">
        <rect x="3" y="3" width="18" height="18" rx="2" ry="2" stroke="currentColor" stroke-width="2" fill="none"/>
        <circle cx="8.5" cy="8.5" r="1.5" fill="currentColor"/>
        <path d="M21 15L16 10L5 21" stroke="currentColor" stroke-width="2" stroke-linecap="round" stroke-linejoin="round" fill="none"/>
    </symbol>
</svg>

